<?xml version="1.0" encoding="utf-8"?>
<svg version="1.1" xmlns:xlink="http://www.w3.org/1999/xlink" width="13px" height="13px" xmlns="http://www.w3.org/2000/svg">
  <g transform="matrix(1 0 0 1 -112 -981 )">
    <path d="M 12.9310825892857 8.44903273809524  C 12.9770275297619 8.51029265873016  13 8.5828373015873  13 8.66666666666667  L 13 10.5238095238095  C 13 10.6076388888889  12.9770275297619 10.680183531746  12.9310825892857 10.741443452381  C 12.8851376488095 10.8027033730159  12.8307291666667 10.8333333333333  12.7678571428571 10.8333333333333  L 2.78571428571429 10.8333333333333  L 2.78571428571429 12.6904761904762  C 2.78571428571429 12.7743055555556  2.76274181547619 12.8468501984127  2.716796875 12.9081101190476  C 2.67085193452381 12.9693700396825  2.61644345238095 13  2.55357142857143 13  C 2.49553571428571 13  2.4375 12.9677579365079  2.37946428571429 12.9032738095238  L 0.0652901785714286 9.80803571428571  C 0.0217633928571429 9.75  0 9.67906746031746  0 9.59523809523809  C 0 9.50496031746032  0.0217633928571429 9.43080357142857  0.0652901785714286 9.37276785714286  L 2.38671875 6.27752976190476  C 2.43024553571429 6.21949404761905  2.4858630952381 6.19047619047619  2.55357142857143 6.19047619047619  C 2.61644345238095 6.19047619047619  2.67085193452381 6.22110615079365  2.716796875 6.28236607142857  C 2.76274181547619 6.34362599206349  2.78571428571429 6.41617063492063  2.78571428571429 6.5  L 2.78571428571429 8.35714285714286  L 12.7678571428571 8.35714285714286  C 12.8307291666667 8.35714285714286  12.8851376488095 8.38777281746032  12.9310825892857 8.44903273809524  Z M 12.9347098214286 3.18229166666667  C 12.9782366071429 3.24032738095238  13 3.31448412698413  13 3.4047619047619  C 13 3.49503968253968  12.9782366071429 3.56919642857143  12.9347098214286 3.62723214285714  L 10.61328125 6.72247023809524  C 10.5697544642857 6.78050595238095  10.5141369047619 6.80952380952381  10.4464285714286 6.80952380952381  C 10.383556547619 6.80952380952381  10.3291480654762 6.77889384920635  10.283203125 6.71763392857143  C 10.2372581845238 6.65637400793651  10.2142857142857 6.58382936507936  10.2142857142857 6.5  L 10.2142857142857 4.64285714285714  L 0.232142857142857 4.64285714285714  C 0.169270833333333 4.64285714285714  0.114862351190476 4.61222718253968  0.0689174107142857 4.55096726190476  C 0.0229724702380952 4.48970734126984  0 4.4171626984127  0 4.33333333333333  L 0 2.47619047619048  C 0 2.39236111111111  0.0229724702380952 2.31981646825397  0.0689174107142857 2.25855654761905  C 0.114862351190476 2.19729662698413  0.169270833333333 2.16666666666667  0.232142857142857 2.16666666666667  L 10.2142857142857 2.16666666666667  L 10.2142857142857 0.30952380952381  C 10.2142857142857 0.219246031746031  10.2360491071429 0.145089285714286  10.2795758928571 0.0870535714285718  C 10.3231026785714 0.0290178571428578  10.3787202380952 0  10.4464285714286 0  C 10.5044642857143 0  10.5625 0.0322420634920634  10.6205357142857 0.0967261904761901  L 12.9347098214286 3.18229166666667  Z " fill-rule="nonzero" fill="#9f9e9e" stroke="none" transform="matrix(1 0 0 1 112 981 )" />
  </g>
</svg>